HIERARCHY
ROOT Hips
{
	OFFSET 51.793900 -33.208015 84.696289
	CHANNELS 6 Xposition Yposition Zposition Xrotation Yrotation Zrotation
	JOINT spine
	{
		OFFSET 0.000000 -0.342407 5.954384
		CHANNELS 3 Xrotation Yrotation Zrotation
		JOINT spine1
		{
			OFFSET 0.000000 0.000000 8.856018
			CHANNELS 3 Xrotation Yrotation Zrotation
			JOINT spine2
			{
				OFFSET 0.000000 -0.000004 8.485672
				CHANNELS 3 Xrotation Yrotation Zrotation
				JOINT Neck
				{
					OFFSET 0.000000 -1.038704 21.786308
					CHANNELS 3 Xrotation Yrotation Zrotation
					JOINT Head
					{
						OFFSET 0.000000 0.000000 6.582199
						CHANNELS 3 Xrotation Yrotation Zrotation
						End Site
						{
							OFFSET 0.000000 5.254358 15.932602
						}
					}
				}
				JOINT RightShoulder
				{
					OFFSET -3.573071 0.497524 9.163864
					CHANNELS 3 Xrotation Yrotation Zrotation
					JOINT RightArm
					{
						OFFSET 0.000000 -0.000004 12.019203
						CHANNELS 3 Xrotation Yrotation Zrotation
						JOINT RightArmRoll
						{
							OFFSET 0.000000 0.000000 6.067551
							CHANNELS 3 Xrotation Yrotation Zrotation
							JOINT RightForeArm
							{
								OFFSET 0.000000 -0.000004 17.672607
								CHANNELS 3 Xrotation Yrotation Zrotation
								JOINT RightForeArmRoll
								{
									OFFSET 0.000000 0.000000 6.808731
									CHANNELS 3 Xrotation Yrotation Zrotation
									JOINT RightHand
									{
										OFFSET 0.000000 0.000000 13.663605
										CHANNELS 3 Xrotation Yrotation Zrotation
										End Site
										{
											OFFSET 0.000000 0.000000 0.100006
										}
									}
								}
							}
						}
					}
				}
				JOINT LeftShoulder
				{
					OFFSET 3.573071 0.497524 9.163864
					CHANNELS 3 Xrotation Yrotation Zrotation
					JOINT LeftArm
					{
						OFFSET 0.000000 -0.000004 12.019203
						CHANNELS 3 Xrotation Yrotation Zrotation
						JOINT LeftArmRoll
						{
							OFFSET 0.000000 0.000000 6.067551
							CHANNELS 3 Xrotation Yrotation Zrotation
							JOINT LeftForeArm
							{
								OFFSET 0.000000 -0.000004 17.672607
								CHANNELS 3 Xrotation Yrotation Zrotation
								JOINT LeftForeArmRoll
								{
									OFFSET 0.000000 0.000000 6.808716
									CHANNELS 3 Xrotation Yrotation Zrotation
									JOINT LeftHand
									{
										OFFSET 0.000000 0.000000 13.663605
										CHANNELS 3 Xrotation Yrotation Zrotation
										End Site
										{
											OFFSET 0.000000 0.000000 0.100006
										}
									}
								}
							}
						}
					}
				}
			}
		}
	}
	JOINT RightUpLeg
	{
		OFFSET -5.277740 0.811859 -0.967796
		CHANNELS 3 Xrotation Yrotation Zrotation
		JOINT RightUpLegRoll
		{
			OFFSET 0.000000 0.000000 16.021400
			CHANNELS 3 Xrotation Yrotation Zrotation
			JOINT RightLeg
			{
				OFFSET 0.000000 0.000004 -19.840096
				CHANNELS 3 Xrotation Yrotation Zrotation
				JOINT RightLegRoll
				{
					OFFSET 0.000000 -0.000004 19.904999
					CHANNELS 3 Xrotation Yrotation Zrotation
					JOINT RightFoot
					{
						OFFSET 0.000000 -0.000004 16.567497
						CHANNELS 3 Xrotation Yrotation Zrotation
						JOINT RightToeBase
						{
							OFFSET 0.000000 -0.000004 13.849609
							CHANNELS 3 Xrotation Yrotation Zrotation
							End Site
							{
								OFFSET 0.005871 0.773117 6.707275
							}
						}
					}
				}
			}
		}
	}
	JOINT LeftUpLeg
	{
		OFFSET 5.277740 0.811859 -0.967796
		CHANNELS 3 Xrotation Yrotation Zrotation
		JOINT LeftUpLegRoll
		{
			OFFSET 0.000000 0.000000 16.021500
			CHANNELS 3 Xrotation Yrotation Zrotation
			JOINT LeftLeg
			{
				OFFSET 0.000000 -0.000004 19.839996
				CHANNELS 3 Xrotation Yrotation Zrotation
				JOINT LeftLegRoll
				{
					OFFSET 0.000000 -0.000004 20.089012
					CHANNELS 3 Xrotation Yrotation Zrotation
					JOINT LeftFoot
					{
						OFFSET 0.000000 -0.000004 16.383499
						CHANNELS 3 Xrotation Yrotation Zrotation
						JOINT LeftToeBase
						{
							OFFSET 0.000000 0.000000 13.849594
							CHANNELS 3 Xrotation Yrotation Zrotation
							End Site
							{
								OFFSET -0.026310 0.773115 6.707275
							}
						}
					}
				}
			}
		}
	}
}
MOTION
Frames: 12
Frame Time: 0.041667
48.958302 7.151775 54.458389 -18.801711 2.588932 4.429401 -1.254927 0.211525 -0.255662 1.483192 0.429534 -0.524134 3.128273 0.423160 -0.529138 18.622439 -6.076462 -1.406907 14.041404 2.497189 -1.513510 60.223520 -92.491676 56.134200 77.031078 -56.432416 85.811587 0.000005 -0.000002 -0.000002 -0.027635 3.637859 -1.990708 -0.000004 0.000012 -3.011610 -5.000162 -7.999928 -0.000003 -23.486352 64.852407 27.579693 -62.033281 126.096617 69.625214 0.000003 0.000000 0.000000 -0.042694 -3.649490 1.990653 0.000000 -0.000002 3.011610 -5.000168 7.999920 -0.000004 -74.142687 -178.468622 2.265674 179.999964 0.000006 -2.155989 81.046144 6.024462 1.716235 -0.000004 -0.000004 2.789690 65.385572 7.302886 1.378614 25.456960 -7.355622 0.000012 -74.693023 177.711263 5.681789 0.000011 0.000011 -2.167670 -96.544410 -7.447685 -4.073399 0.000001 0.000006 -2.578800 60.102844 -7.846319 -0.662414 25.456955 7.355612 -0.000009 
48.958397 7.157223 54.455189 -18.805654 2.585009 4.425616 -1.249739 0.211171 -0.255699 1.494351 0.429283 -0.523816 3.139424 0.422918 -0.528820 18.638632 -6.064968 -1.394721 14.060320 2.479103 -1.499546 59.858548 -92.465523 55.778193 77.002419 -56.536461 85.797647 0.000008 -0.000002 -0.000001 -0.027664 3.637831 -1.990705 -0.000007 0.000012 -3.011609 -5.000165 -7.999928 -0.000003 -23.538533 64.882009 27.638564 -62.115550 126.103583 69.683366 -0.000002 -0.000000 0.000000 -0.042697 -3.649532 1.990653 0.000000 -0.000001 3.011611 -5.000164 7.999921 -0.000004 -74.144190 -178.476203 2.266674 179.999964 0.000005 -2.155989 81.054613 6.026821 1.715169 -0.000004 -0.000003 2.790150 65.391207 7.302861 1.378531 25.456964 -7.355620 0.000013 -74.694348 177.724391 5.661829 0.000011 0.000011 -2.167810 -96.539683 -7.443687 -4.067861 0.000001 0.000006 -2.578559 60.104046 -7.845670 -0.662852 25.456957 7.355615 -0.000009 
48.960896 7.148235 54.456192 -18.809503 2.581304 4.421449 -1.244788 0.210887 -0.255754 1.505064 0.429214 -0.523538 3.150143 0.422859 -0.528546 18.655110 -6.055930 -1.382314 14.079375 2.463405 -1.485671 59.455478 -92.439247 55.384232 76.970358 -56.642284 85.781821 0.000007 -0.000002 -0.000002 -0.027685 3.637810 -1.990703 -0.000004 0.000012 -3.011611 -5.000160 -7.999928 -0.000002 -23.589131 64.908818 27.695715 -62.194323 126.110618 69.737973 -0.000001 0.000000 -0.000000 -0.042698 -3.649591 1.990653 0.000003 -0.000001 3.011610 -5.000167 7.999921 -0.000004 -74.145166 -178.484017 2.268378 179.999964 0.000005 -2.155989 81.063356 6.028859 1.714066 -0.000004 -0.000003 2.790581 65.396234 7.302867 1.378598 25.456964 -7.355620 0.000011 -74.695406 177.736672 5.641793 0.000011 0.000011 -2.167890 -96.535093 -7.439842 -4.062339 0.000000 0.000005 -2.578341 60.105453 -7.845025 -0.663275 25.456950 7.355615 -0.000011 
48.961197 7.158154 54.457588 -18.813355 2.577761 4.416997 -1.239999 0.210652 -0.255821 1.515461 0.429272 -0.523290 3.160538 0.422923 -0.528303 18.671857 -6.048603 -1.369768 14.098749 2.449373 -1.471864 59.018012 -92.413040 54.955979 76.936152 -56.749252 85.764766 0.000007 -0.000002 -0.000002 -0.027695 3.637790 -1.990703 -0.000008 0.000011 -3.011610 -5.000166 -7.999927 -0.000001 -23.638718 64.933782 27.751742 -62.272399 126.117162 69.792225 -0.000002 0.000000 -0.000000 -0.042697 -3.649662 1.990652 0.000002 -0.000002 3.011611 -5.000166 7.999921 -0.000004 -74.146041 -178.491817 2.269880 179.999964 0.000005 -2.155989 81.072310 6.030661 1.712935 -0.000005 -0.000003 2.790991 65.401049 7.302844 1.378670 25.456967 -7.355619 0.000013 -74.696472 177.748146 5.622575 0.000011 0.000011 -2.167920 -96.530305 -7.436027 -4.054817 0.000000 0.000006 -2.578140 60.107249 -7.844336 -0.663759 25.456952 7.355616 -0.000011 
48.958500 7.178814 54.461090 -18.817099 2.574315 4.412391 -1.235309 0.210445 -0.255896 1.525681 0.429403 -0.523057 3.170756 0.423062 -0.528077 18.688835 -6.042252 -1.357130 14.118121 2.436305 -1.458087 58.560573 -92.386860 54.507775 76.900444 -56.856950 85.746878 0.000009 -0.000003 -0.000002 -0.027699 3.637779 -1.990703 -0.000006 0.000011 -3.011609 -5.000162 -7.999929 -0.000002 -23.687724 64.957660 27.807146 -62.350147 126.123500 69.846334 -0.000001 0.000000 -0.000000 -0.042696 -3.649741 1.990652 -0.000003 -0.000001 3.011609 -5.000162 7.999920 -0.000004 -74.146737 -178.499590 2.271301 179.999964 0.000006 -2.155989 81.081237 6.032422 1.711800 -0.000004 -0.000002 2.791391 65.405652 7.302874 1.378667 25.456964 -7.355622 0.000013 -74.697401 177.759320 5.603127 0.000010 0.000012 -2.167940 -96.525709 -7.432171 -4.049293 0.000001 0.000006 -2.577951 60.109162 -7.843625 -0.664329 25.456952 7.355613 -0.000010 
48.955597 7.178150 54.474190 -18.820952 2.570885 4.407758 -1.230637 0.210246 -0.255971 1.535852 0.429553 -0.522829 3.180922 0.423219 -0.527855 18.705820 -6.036141 -1.344475 14.137508 2.423490 -1.444314 58.087781 -92.360851 54.044268 76.864326 -56.964819 85.728641 0.000007 -0.000002 -0.000002 -0.027705 3.637768 -1.990703 -0.000007 0.000012 -3.011609 -5.000160 -7.999930 -0.000003 -23.736582 64.981149 27.862387 -62.427588 126.129688 69.900101 -0.000003 -0.000000 0.000000 -0.042699 -3.649830 1.990653 0.000001 -0.000002 3.011611 -5.000160 7.999921 -0.000004 -74.147311 -178.507636 2.273655 179.999964 0.000006 -2.155989 81.090232 6.034104 1.710751 -0.000004 -0.000003 2.791780 65.410154 7.302890 1.378671 25.456962 -7.355621 0.000013 -74.698337 177.770481 5.583392 0.000011 0.000012 -2.167951 -96.521126 -7.428323 -4.042780 0.000001 0.000006 -2.577770 60.111081 -7.842964 -0.664709 25.456952 7.355617 -0.000011 
48.957996 7.171848 54.471680 -18.824705 2.567410 4.403192 -1.225932 0.210032 -0.256042 1.546125 0.429665 -0.522592 3.191184 0.423341 -0.527625 18.722693 -6.029530 -1.331865 14.156882 2.410201 -1.430509 57.613069 -92.334991 53.578797 76.828686 -57.072361 85.710610 0.000005 -0.000003 -0.000003 -0.027711 3.637762 -1.990701 -0.000007 0.000011 -3.011610 -5.000160 -7.999929 -0.000001 -23.785951 65.005287 27.918195 -62.505233 126.136191 69.954155 -0.000001 -0.000000 0.000000 -0.042693 -3.649911 1.990653 0.000002 -0.000003 3.011612 -5.000165 7.999921 -0.000005 -74.147980 -178.515682 2.276046 179.999964 0.000006 -2.155989 81.099173 6.035863 1.709615 -0.000005 -0.000003 2.792180 65.414866 7.302890 1.378657 25.456960 -7.355622 0.000012 -74.699382 177.781683 5.564248 0.000011 0.000011 -2.167970 -96.516536 -7.424470 -4.037260 0.000000 0.000006 -2.577579 60.112884 -7.842276 -0.665292 25.456952 7.355613 -0.000009 
48.970695 7.182571 54.466393 -18.828557 2.563829 4.398815 -1.221087 0.209783 -0.256106 1.556601 0.429687 -0.522335 3.201678 0.423370 -0.527373 18.739416 -6.021686 -1.319372 14.176147 2.395734 -1.416642 57.143791 -92.309385 53.118678 76.794515 -57.178983 85.693418 0.000006 -0.000003 -0.000003 -0.027724 3.637741 -1.990701 -0.000006 0.000011 -3.011611 -5.000160 -7.999928 -0.000002 -23.836196 65.030655 27.974935 -62.583405 126.143280 70.008333 -0.000002 0.000000 0.000000 -0.042696 -3.649980 1.990652 -0.000001 -0.000002 3.011610 -5.000164 7.999920 -0.000004 -74.148875 -178.523468 2.277602 179.999964 0.000005 -2.155989 81.108073 6.037729 1.708489 -0.000005 -0.000003 2.792600 65.419688 7.302908 1.378737 25.456965 -7.355620 0.000013 -74.700454 177.793389 5.544695 0.000011 0.000011 -2.168020 -96.511946 -7.420621 -4.030732 0.000000 0.000006 -2.577371 60.114592 -7.841611 -0.665690 25.456948 7.355616 -0.000011 
48.972797 7.249336 54.485687 -18.832503 2.560058 4.394767 -1.216070 0.209478 -0.256156 1.567453 0.429564 -0.522045 3.212528 0.423256 -0.527086 18.755768 -6.011871 -1.307071 14.195196 2.379379 -1.402678 56.694245 -92.283956 52.678186 76.762830 -57.284257 85.677497 0.000006 -0.000003 -0.000002 -0.027742 3.637720 -1.990700 -0.000007 0.000011 -3.011610 -5.000159 -7.999927 -0.000002 -23.887965 65.058201 28.033335 -62.663379 126.150561 70.064313 -0.000003 0.000001 0.000000 -0.042695 -3.650031 1.990652 0.000000 -0.000002 3.011610 -5.000161 7.999921 -0.000004 -74.150098 -178.531023 2.278369 179.999964 0.000005 -2.155989 81.116768 6.039836 1.707392 -0.000004 -0.000004 2.793040 65.424920 7.302900 1.378785 25.456962 -7.355621 0.000013 -74.701622 177.805943 5.524623 0.000011 0.000011 -2.168110 -96.507103 -7.416727 -4.024198 0.000001 0.000006 -2.577149 60.115971 -7.840915 -0.666203 25.456953 7.355612 -0.000009 
48.968395 7.242016 54.494686 -18.836448 2.556041 4.391135 -1.210774 0.209094 -0.256184 1.578791 0.429242 -0.521710 3.223857 0.422942 -0.526752 18.771720 -5.999343 -1.295030 14.213913 2.360423 -1.388580 56.271104 -92.258842 52.263945 76.734498 -57.387564 85.663345 0.000005 -0.000002 -0.000002 -0.027782 3.637689 -1.990708 -0.000008 0.000011 -3.011609 -5.000165 -7.999927 -0.000002 -23.941640 65.088616 28.093801 -62.744413 126.158949 70.120757 0.000001 0.000000 0.000000 -0.042696 -3.650060 1.990652 -0.000001 -0.000001 3.011611 -5.000162 7.999921 -0.000003 -74.151628 -178.538590 2.279421 179.999964 0.000005 -2.155989 81.125203 6.042265 1.706331 -0.000005 -0.000003 2.793510 65.430658 7.302840 1.378791 25.456962 -7.355620 0.000012 -74.703049 177.819590 5.503999 0.000011 0.000011 -2.168280 -96.502377 -7.412717 -4.018661 0.000001 0.000006 -2.576891 60.116975 -7.840310 -0.666568 25.456953 7.355614 -0.000010 
48.975296 7.251858 54.497391 -18.840484 2.551720 4.388054 -1.205156 0.208613 -0.256190 1.590763 0.428666 -0.521316 3.235829 0.422375 -0.526355 18.787144 -5.983366 -1.283312 14.232396 2.338157 -1.374322 55.891639 -92.233871 51.893178 76.710667 -57.488336 85.651767 0.000008 -0.000002 -0.000002 -0.027829 3.637641 -1.990705 -0.000010 0.000011 -3.011609 -5.000162 -7.999928 -0.000002 -23.997909 65.122828 28.157076 -62.829168 126.167760 70.180884 0.000001 0.000000 0.000000 -0.042692 -3.650069 1.990652 0.000000 -0.000001 3.011609 -5.000164 7.999920 -0.000004 -74.153677 -178.545926 2.279839 179.999964 0.000005 -2.155989 81.133304 6.045086 1.705324 -0.000004 -0.000003 2.794029 65.437023 7.302786 1.378755 25.456965 -7.355620 0.000012 -74.704641 177.834330 5.483710 0.000011 0.000012 -2.168530 -96.497466 -7.408751 -4.012119 -0.000000 0.000006 -2.576600 60.117344 -7.839699 -0.666975 25.456948 7.355612 -0.000008 
48.981495 7.269863 54.493088 -18.844521 2.547002 4.385625 -1.199132 0.208012 -0.256163 1.603493 0.427781 -0.520852 3.248560 0.421500 -0.525885 18.801820 -5.963209 -1.271994 14.250442 2.311856 -1.359857 55.563343 -92.209179 51.573351 76.692219 -57.586295 85.643148 0.000010 -0.000003 -0.000002 -0.027890 3.637570 -1.990701 -0.000004 0.000011 -3.011610 -5.000160 -7.999929 -0.000002 -24.057301 65.161617 28.223749 -62.916629 126.177623 70.243223 0.000002 0.000001 -0.000000 -0.042695 -3.650039 1.990652 0.000000 -0.000002 3.011610 -5.000162 7.999921 -0.000005 -74.156279 -178.552770 2.278734 179.999964 0.000005 -2.155989 81.141111 6.048366 1.704264 -0.000004 -0.000003 2.794610 65.444113 7.302666 1.378753 25.456965 -7.355620 0.000012 -74.706622 177.850722 5.462734 0.000011 0.000012 -2.168870 -96.492357 -7.404827 -4.005566 0.000000 0.000006 -2.576259 60.117221 -7.839150 -0.667237 25.456952 7.355612 -0.000009 
